PathFileType	3	(X/Y/Z)	D:\Students\303\Renee\Session 1\Renee Cal 01.trc
DataRate	CameraRate	NumFrames	NumMarkers	Units	OrigDataRate	OrigDataStartFrame	OrigNumFrames
100.0	100.0	10	27	mm	100.0	150	599	
Frame#	Time	RASIS			LASIS			RPSIS			LPSIS			RKneeLateral			RKneeMedial			LKneeLateral			LKneeMedial			RAnkleLateral			RAnkleMedial			RShank			RFibula			LAnkleLateral			LAnkleMedial			LShank			LFibula			RMT2			RHeel			RMT5			RToe			LMT2			LHeel			LMT5			LToe			Sternum			LShoulder			RShoulder			
		X1	Y1	Z1	X2	Y2	Z2	X3	Y3	Z3	X4	Y4	Z4	X5	Y5	Z5	X6	Y6	Z6	X7	Y7	Z7	X8	Y8	Z8	X9	Y9	Z9	X10	Y10	Z10	X11	Y11	Z11	X12	Y12	Z12	X13	Y13	Z13	X14	Y14	Z14	X15	Y15	Z15	X16	Y16	Z16	X17	Y17	Z17	X18	Y18	Z18	X19	Y19	Z19	X20	Y20	Z20	X21	Y21	Z21	X22	Y22	Z22	X23	Y23	Z23	X24	Y24	Z24	X25	Y25	Z25	X26	Y26	Z26	X27	Y27	Z27	
150	1.49	-145.90942	885.44519	-503.63748	-420.14609	887.40857	-502.46304	-220.85556	943.90637	-292.85678	-341.10086	947.24146	-289.48776	-114.79484	428.62155	-386.2547				-478.77994	441.5946	-372.61368										-105.59517	313.92001	-366.06525	-113.35182	389.20029	-376.88693	-451.80328	56.724121	-361.16104				-474.89868	313.54044	-389.54105	-481.74579	409.6344	-364.05951	-177.57976	23.661495	-515.81274	-189.74599	21.348593	-304.36108	-136.39296	20.42091	-495.52768				-415.47794	21.209648	-523.90234	-402.70862	29.946154	-312.58612	-453.521	19.22286	-497.44003				-291.33276	1310.4028	-480.21085	-426.01068	1359.3606	-371.80124	-131.33208	1367.7567	-404.60281
151	1.5	-145.91454	885.43939	-503.58362	-420.13141	887.40955	-502.37112	-220.85399	943.90094	-292.79694	-341.09479	947.23895	-289.42087	-114.79684	428.62	-386.24039				-478.73267	441.62292	-372.48947										-105.5973	313.90869	-366.04022	-113.3586	389.18326	-376.8605	-451.80002	56.724945	-361.15616				-474.88629	313.54202	-389.51175	-481.75241	409.63583	-364.02307	-177.57817	23.668249	-515.82672	-189.74432	21.355589	-304.35764	-136.39291	20.420433	-495.54413				-415.47113	21.209976	-523.91168	-402.6777	29.902124	-312.62057	-453.52454	19.236675	-497.43411				-291.34796	1310.4412	-480.18478	-426.00867	1359.3821	-371.74957	-131.35443	1367.8204	-404.59296
152	1.51	-145.93797	885.43842	-503.52179	-420.12717	887.42383	-502.28989	-220.85381	943.90381	-292.74344	-341.10602	947.26123	-289.34827	-114.79693	428.61737	-386.20059				-478.79688	441.60822	-372.52277										-105.60385	313.89243	-366.01993	-113.36736	389.17953	-376.8288	-451.78473	56.724445	-361.14499				-474.88361	313.56308	-389.47842	-481.7392	409.64532	-363.97363	-177.5712	23.661097	-515.83185	-189.73291	21.353399	-304.36353	-136.38683	20.405085	-495.53827				-415.47437	21.204062	-523.90851	-402.6813	29.915281	-312.58578	-453.51929	19.230553	-497.43677				-291.35568	1310.4568	-480.16049	-426.00894	1359.4061	-371.70428	-131.37962	1367.8965	-404.58249
153	1.52	-145.95612	885.46375	-503.48639	-420.14551	887.42395	-502.22815	-220.87219	943.93719	-292.69394	-341.12189	947.29797	-289.27954	-114.7998	428.62625	-386.17725				-478.76035	441.58548	-372.48718										-105.61797	313.90857	-366.00784	-113.36115	389.19336	-376.81503	-451.78778	56.725376	-361.1315				-474.87061	313.5437	-389.44235	-481.72995	409.65118	-363.93674	-177.5739	23.660366	-515.8255	-189.68138	21.538311	-304.09793	-136.39023	20.410482	-495.53677				-415.46561	21.204079	-523.90967	-402.68967	29.934603	-312.56769	-453.5174	19.232229	-497.43625				-291.38623	1310.4813	-480.13388	-426.02686	1359.4333	-371.66699	-131.41264	1367.9583	-404.56287
154	1.53	-145.96297	885.49194	-503.46011	-420.14178	887.42572	-502.17706	-220.88617	943.96582	-292.64056	-341.13385	947.34094	-289.19809	-114.8149	428.65082	-386.15469				-478.75711	441.58551	-372.43713										-105.62195	313.93115	-365.98526	-113.36383	389.23328	-376.79572	-451.78186	56.723759	-361.12689				-474.87842	313.54858	-389.41241	-481.73203	409.64084	-363.87833	-177.56697	23.65764	-515.82855	-189.7319	21.345484	-304.36813	-136.39157	20.400064	-495.54095				-415.46115	21.199471	-523.90521	-402.69937	29.94908	-312.57452	-453.50964	19.219482	-497.43369				-291.41193	1310.4847	-480.10605	-426.05411	1359.4565	-371.63834	-131.4483	1368.0104	-404.57257
155	1.54	-146.00365	885.50403	-503.40891	-420.1441	887.42731	-502.12073	-220.90631	944.01453	-292.57092	-341.14471	947.38257	-289.13461	-114.83233	428.67279	-386.11685				-478.75912	441.59238	-372.37036										-105.63715	313.95023	-365.97202	-113.38645	389.24854	-376.7681	-451.77866	56.712467	-361.12561				-474.87769	313.53241	-389.36871	-481.73016	409.62878	-363.83279	-177.56947	23.652248	-515.83344	-189.73837	21.344954	-304.36646	-136.38188	20.400589	-495.54651				-415.45953	21.189266	-523.90692	-402.72354	29.98765	-312.56711	-453.5137	19.204247	-497.43884				-291.45319	1310.4839	-480.08112	-426.07776	1359.4753	-371.60681	-131.50368	1368.0824	-404.5798
156	1.55	-146.04352	885.51428	-503.35519	-420.15341	887.42499	-502.0647	-220.9071	944.04309	-292.50864	-341.15121	947.42657	-289.05713	-114.8427	428.70044	-386.08902				-478.77438	441.56314	-372.3378										-105.65543	313.96246	-365.95459	-113.38853	389.27911	-376.74884	-451.78314	56.702538	-361.12869				-474.8877	313.51453	-389.32306	-481.7363	409.61203	-363.78516	-177.54962	23.637112	-515.83685	-189.74886	21.346914	-304.36154	-136.3826	20.388639	-495.55142				-415.45694	21.168507	-523.90527	-402.75372	30.019176	-312.54596	-453.51321	19.198416	-497.43518				-291.48273	1310.474	-480.04868	-426.11008	1359.4767	-371.58612	-131.56902	1368.1382	-404.59326
157	1.56	-146.05328	885.52936	-503.33643	-420.1481	887.42657	-501.99997	-220.91066	944.06262	-292.44138	-341.147	947.45502	-288.98901	-114.84798	428.71878	-386.05469				-478.80252	441.56381	-372.28531										-105.66211	313.96295	-365.91388	-113.39598	389.28952	-376.73166	-451.79465	56.685108	-361.13077				-474.90158	313.51102	-389.29694	-481.75183	409.61081	-363.71133	-177.54236	23.622654	-515.83728	-189.74803	21.349016	-304.36465	-136.38655	20.374899	-495.55157				-415.46219	21.158112	-523.90503	-402.79941	30.054207	-312.53052	-453.51807	19.186325	-497.43796				-291.51901	1310.4727	-480.01938	-426.13431	1359.4722	-371.55487	-131.61143	1368.1532	-404.5993
158	1.57	-146.04601	885.52411	-503.27945	-420.13855	887.42627	-501.94656	-220.90199	944.04736	-292.37695	-341.14502	947.45422	-288.93469	-114.84246	428.71893	-386.00586				-478.8201	441.5495	-372.25153										-105.66505	313.96729	-365.88461	-113.36435	389.29538	-376.70798	-451.79486	56.669609	-361.13742				-474.92599	313.51389	-389.26245	-481.76083	409.60382	-363.67749	-177.53362	23.620167	-515.83179	-189.75601	21.346069	-304.36133	-136.37798	20.380745	-495.56064				-415.45609	21.154455	-523.90131	-402.79968	30.060608	-312.53525	-453.51218	19.17771	-497.43399				-291.55136	1310.4595	-479.98419	-426.16803	1359.4592	-371.53165	-131.6395	1368.1575	-404.60123
159	1.58	-146.04211	885.48035	-503.20654	-420.12271	887.4295	-501.91785	-220.87737	944.01971	-292.32834	-341.1272	947.42371	-288.88318	-114.84272	428.6796	-385.95789				-478.83142	441.54971	-372.21121										-105.65077	313.93246	-365.85315	-113.34436	389.27353	-376.66705	-451.79593	56.671883	-361.14301				-474.93762	313.51407	-389.25177	-481.77872	409.60272	-363.6459	-177.53313	23.616663	-515.84241	-189.76268	21.349932	-304.36459	-136.37508	20.368742	-495.55341				-415.45203	21.142128	-523.90302	-402.82071	30.054096	-312.48648	-453.51245	19.172371	-497.42953				-291.57797	1310.4377	-479.94397	-426.20023	1359.4154	-371.49478	-131.6326	1368.1216	-404.60419
